PathFileType	4	(X/Y/Z)	 s01c0301.trc
DataRate	CameraRate	NumFrames	NumMarkers	Units	OrigDataRate	OrigDataStartFrame	OrigNumFrames
200	200	4	48	mm	200	501	2000
Frame#	Time	racr			lacr			c7			jug			rlel			rdr			llel			ldr			s2			lic			ric			lasi			rasi			rpsi			lpsi			rgt			lgt			rth1			rth2			rth3			rth4			rlfc			rsh1			rsh2			rsh3			rsh4			rlmal			rmmal			rcal			rtoe			rmt5			lth1			lth2			lth4			lth3			llfc			lsh1			lsh2			lsh3			lsh4			llmal			lmmal			lcal			ltoe			lmt5			SBIKE			LBIKE			RBIKE			
		X1	Y1	Z1	X2	Y2	Z2	X3	Y3	Z3	X4	Y4	Z4	X5	Y5	Z5	X6	Y6	Z6	X7	Y7	Z7	X8	Y8	Z8	X9	Y9	Z9	X10	Y10	Z10	X11	Y11	Z11	X12	Y12	Z12	X13	Y13	Z13	X14	Y14	Z14	X15	Y15	Z15	X16	Y16	Z16	X17	Y17	Z17	X18	Y18	Z18	X19	Y19	Z19	X20	Y20	Z20	X21	Y21	Z21	X22	Y22	Z22	X23	Y23	Z23	X24	Y24	Z24	X25	Y25	Z25	X26	Y26	Z26	X27	Y27	Z27	X28	Y28	Z28	X29	Y29	Z29	X30	Y30	Z30	X31	Y31	Z31	X32	Y32	Z32	X33	Y33	Z33	X34	Y34	Z34	X35	Y35	Z35	X36	Y36	Z36	X37	Y37	Z37	X38	Y38	Z38	X39	Y39	Z39	X40	Y40	Z40	X41	Y41	Z41	X42	Y42	Z42	X43	Y43	Z43	X44	Y44	Z44	X45	Y45	Z45	X46	Y46	Z46	X47	Y47	Z47	X48	Y48	Z48	
501	2.5050	657.366818	1360.184725	-64.582967	661.146839	1379.120684	-398.364278	616.698038	1456.706249	-224.622729	626.352606	1288.418695	-233.227678	624.480253	1078.013400	24.755135	731.788947	848.343194	-45.909000	604.229034	1105.151311	-518.099282	732.370462	889.884724	-437.714847	93.162369	1216.657180	-232.735981	269.950330	1215.550272	-405.588287	250.329673	1219.040363	-75.163464	270.700055	1159.588857	-377.654411	276.508352	1173.625963	-101.222468	123.192594	1256.401005	-182.057097	128.527185	1254.325555	-288.438144	204.914648	1111.673398	-37.770881	196.603059	1074.613025	-417.976767	307.232878	1032.455771	-21.056024	378.187386	990.541818	-26.106206	452.173681	938.979834	-36.124852	407.462364	1035.124866	-43.049204	504.064882	849.539169	-61.753618	408.559877	781.343314	-37.099216	342.436540	729.262608	-47.418916	268.006149	682.632635	-63.032000	371.514062	696.026536	-87.913175	161.350527	625.391622	-86.756469	201.845006	607.353260	-166.086858	115.439198	639.052256	-145.261107	258.164772	406.683768	-134.878438	174.122789	473.678259	-66.034144	221.751423	951.299567	-422.495095	271.418572	877.533706	-420.888422	316.359906	905.499569	-413.105567	310.215150	803.342500	-401.331838	345.673769	691.833446	-383.713165	301.417788	590.776093	-427.245573	287.922507	505.180666	-423.992137	271.967572	421.230658	-415.491315	341.151079	498.673682	-393.463286	244.620321	297.823756	-402.450093	273.735020	315.277569	-326.104452	195.966408	283.571231	-365.959994	448.512109	167.251922	-369.985521	343.843604	183.545459	-437.978030	-222.703585	893.143260	-249.772307	-11.983995	84.537150	-453.677453	-20.102257	80.768210	-53.649868	
502	2.5100	658.488072	1360.263279	-64.949655	662.923785	1378.686028	-399.079558	618.554335	1456.882754	-225.188584	627.817014	1288.577721	-233.570281	625.077950	1078.278677	23.980944	731.973734	848.537683	-45.909021	606.189144	1104.565343	-518.288478	732.900342	889.054693	-437.477798	94.165777	1217.741207	-234.450186	271.045849	1214.059434	-406.897559	251.008280	1221.027765	-76.419114	271.956379	1159.046763	-378.507847	277.257233	1175.613179	-102.293008	124.363516	1257.769000	-184.102065	130.067592	1254.643712	-290.376854	205.882443	1114.445479	-38.232788	196.066439	1073.797481	-418.413421	309.165495	1036.964210	-22.082928	380.805777	995.984899	-26.638820	455.386930	945.288818	-36.915616	409.490517	1040.829684	-43.819406	507.664342	856.004503	-62.089419	411.937581	787.414117	-37.653679	346.154102	734.892535	-47.920388	271.954806	687.901389	-63.717353	375.321858	701.567617	-88.484896	166.002676	629.822547	-87.034919	206.509660	612.297073	-166.566134	119.586721	642.967283	-145.464435	266.336603	412.879259	-135.296245	181.067092	478.830865	-66.065081	218.078350	950.650245	-422.683277	265.820425	875.621699	-421.528905	311.693959	902.505156	-413.986045	302.713666	800.685167	-402.172434	337.008675	688.552016	-384.489992	293.462186	587.946626	-428.140369	280.230629	502.217124	-424.716097	264.673970	418.222383	-415.995067	333.615935	496.026110	-394.415857	238.920520	294.649866	-402.619089	267.409033	312.010565	-326.180685	190.605941	281.453024	-366.057110	441.443639	161.228023	-370.008605	336.989050	179.154703	-438.038501	-222.775328	893.149250	-249.781489	-11.994893	84.538288	-453.679859	-20.089980	80.776896	-53.656712	
503	2.5150	659.696271	1360.183562	-65.269354	664.575222	1378.265101	-399.883976	620.501104	1457.121346	-225.764639	629.364537	1288.929065	-234.028752	625.473064	1078.469041	23.416575	732.070452	848.879516	-45.809242	608.235353	1103.997377	-518.441812	733.556135	888.284119	-437.263707	95.174503	1219.103024	-236.182756	272.092527	1212.691919	-408.033155	251.688317	1223.201427	-77.753752	273.182936	1158.734249	-379.405872	278.032966	1177.804584	-103.430239	125.479993	1259.400752	-186.108727	131.679736	1255.183471	-292.417591	206.630272	1117.569547	-38.745928	195.365412	1073.229408	-418.807453	310.968967	1041.694741	-23.394097	383.365659	1001.534211	-27.215692	458.528513	951.632734	-37.721251	411.522755	1046.728735	-44.564992	511.231756	862.457577	-62.536092	415.257888	793.491671	-38.180123	349.857336	740.457435	-48.429163	275.955284	692.970188	-64.320653	379.423194	707.190374	-88.744223	170.721686	633.981468	-87.322707	211.179317	616.950392	-167.042482	123.792714	646.393420	-145.678386	274.128482	418.773745	-135.416427	188.541444	483.743960	-65.849505	214.317419	950.310412	-423.036949	260.087679	873.933428	-422.201582	306.671611	899.756488	-415.113348	294.911490	798.291872	-403.030949	328.502344	685.985422	-385.708749	285.300536	585.597732	-429.110287	272.342965	499.827577	-425.511460	257.228537	415.758287	-416.541426	325.995611	493.853165	-395.409121	233.266776	292.115912	-402.904757	260.930389	309.037149	-326.229305	185.202795	279.692253	-365.890994	434.130820	155.686428	-370.134413	329.911995	175.140270	-438.056228	-222.854268	893.158930	-249.745794	-12.005118	84.563719	-453.668595	-20.072127	80.820304	-53.653474	
504	2.5200	660.910601	1360.080537	-65.585267	666.186241	1377.850306	-400.830095	622.498415	1457.438136	-226.341940	630.888708	1289.327812	-234.747591	625.535045	1078.613572	23.064000	732.056623	849.327958	-45.627052	610.390868	1103.523186	-518.553710	734.213107	887.303823	-437.177633	96.257274	1220.630519	-237.967473	273.206933	1211.502282	-409.100023	252.379941	1225.730482	-79.169659	274.266374	1158.399416	-380.366996	278.808080	1180.197085	-104.583646	126.578097	1261.265853	-188.288217	133.283777	1255.932869	-294.483295	207.359805	1121.057366	-39.369279	194.533390	1072.998454	-419.088413	312.773235	1046.605648	-24.587691	385.838299	1007.175139	-27.540353	461.483940	958.022956	-38.446025	413.323851	1052.529724	-45.766709	514.743281	868.937669	-63.028746	418.559341	799.404723	-38.784888	353.576344	745.910667	-48.906566	280.057858	697.814133	-64.833997	383.519123	712.507597	-88.973700	175.514218	637.719298	-87.687904	216.029021	621.140040	-167.512930	127.990386	649.399429	-145.922017	282.513291	424.638407	-135.478815	195.866555	488.030651	-65.956900	210.573323	950.364326	-423.499534	253.946883	872.645365	-422.720272	301.777968	897.425376	-416.534409	287.068572	795.938173	-404.139207	320.089614	683.900086	-387.008899	277.016889	583.698235	-430.146923	264.428479	497.830410	-426.362443	249.728095	413.776480	-417.123180	318.324325	492.171115	-396.592388	227.574374	289.941318	-403.221898	254.320860	306.365512	-326.252187	179.773778	278.653741	-365.769699	426.550003	150.397932	-370.308799	322.600928	171.520920	-438.085147	-222.996990	893.097699	-249.666583	-11.996531	84.497754	-453.779979	-20.078163	80.816375	-53.643929	
